# xmcd
#
# Track frame offsets:
#	150
#	10576
#	22387
#	32514
#	43428
#	55688
#	67047
#	79311
#	92490
#	102906
#	113058
#	123878
#	135911
#	145989
#	156909
#	169665
#	181868
#	194814
#	204837
#	216515
#	228340
#	242250
#	253695
#	264825
#	278476
#
# Disc length: 3866 seconds
#
# Revision: 0
# Processed by: cddbd v1.5.2PL0 Copyright (c) Steve Scherf et al.
# Submitted via: EasyCDDAExtractor 10.0.2.1
#
DISCID=570f1819
DTITLE=Billy Walker - Cross The Brazos At Waco - CD 1
DYEAR=1993
DGENRE=Country
TTITLE0=Headin' For Heartaches
TTITLE1=I'm Gonna Take My Heart Away From You
TTITLE2=You're Gonna Pay With A Broken Heart
TTITLE3=You Didn't Try And Didn't Care
TTITLE4=Too Many Times
TTITLE5=Dirt 'neath Your Feet
TTITLE6=I Guess I'll Have To Die
TTITLE7=Anything Your Heart Desires
TTITLE8=The Last Kiss Is The Sweetest
TTITLE9=Alcohol Love
TTITLE10=I Ain't Got No Roses
TTITLE11=Beautiful Brown Eyes
TTITLE12=Don't Tell A Soul I Love You
TTITLE13=She's Got Honky Tonk Blood (In Her Veins)
TTITLE14=What Would You Do
TTITLE15=Always Think Of You
TTITLE16=Ting-A-Ling
TTITLE17=Fifteen Hugs Past Midnight
TTITLE18=Millie My Darling
TTITLE19=Anything Your Heart Desires
TTITLE20=What Makes Me Love You (Like I Do)
TTITLE21=One Heart's Beatin', One Heart's Cheatin'
TTITLE22=If I Should Live That Long
TTITLE23=Stolen Love
TTITLE24=Who Took My Ring From Our Finger
EXTD=
EXTT0=
EXTT1=
EXTT2=
EXTT3=
EXTT4=
EXTT5=
EXTT6=
EXTT7=
EXTT8=
EXTT9=
EXTT10=
EXTT11=
EXTT12=
EXTT13=
EXTT14=
EXTT15=
EXTT16=
EXTT17=
EXTT18=
EXTT19=
EXTT20=
EXTT21=
EXTT22=
EXTT23=
EXTT24=
PLAYORDER=
